<svg id="casino" xmlns="http://www.w3.org/2000/svg" viewBox="0 0 31 31.065" fit="" height="100%" width="100%" preserveAspectRatio="xMidYMid meet" focusable="false"><defs><style>.cls-1{fill:#6a7787}</style></defs><path id="Path_52" data-name="Path 52" class="cls-1" d="M5.789 27.634c.311.249.56.436.871.685A10.139 10.139 0 0 0 7.719 29a9.4 9.4 0 0 0 1.12.56A5.385 5.385 0 0 0 9.9 30a15.427 15.427 0 0 0 12.948-.809 1.56 1.56 0 0 0 .436-.249.134.134 0 0 0 .124-.125c.249-.124.436-.311.685-.436.062-.062.187-.124.249-.187a15.259 15.259 0 0 0 6.6-11.454v-.311c0-.249.062-.56.062-.809v-.685a15.36 15.36 0 0 0-5.793-11.578c-.311-.249-.56-.436-.871-.685a10.139 10.139 0 0 0-1.058-.685 9.4 9.4 0 0 0-1.12-.56A5.385 5.385 0 0 0 21.1.991a15.539 15.539 0 0 0-12.886.871 1.56 1.56 0 0 0-.436.249.134.134 0 0 0-.124.124 6.561 6.561 0 0 0-.685.436c-.062.062-.187.124-.249.187a15.259 15.259 0 0 0-6.6 11.454v.311a1.46 1.46 0 0 0-.12.748v.685a15.567 15.567 0 0 0 5.789 11.578zM8.03 27.2l.622-1.058a5.474 5.474 0 0 0 .622.373c.187.125.436.187.622.311l-.622 1.058c-.187-.124-.436-.187-.622-.311s-.435-.25-.622-.373zm13.819.685-.622-1.058c.187-.124.436-.187.622-.311a5.474 5.474 0 0 1 .622-.373l.622 1.058a2.707 2.707 0 0 1-.436.249c-.249.124-.436.249-.685.373a.217.217 0 0 1-.123.06zm7.532-11.641h-1.244c0-.249.062-.5.062-.685a2.334 2.334 0 0 0-.062-.685h1.245v.934c.062.123 0 .31 0 .434zM23.094 3.917l-.622 1.058a5.474 5.474 0 0 0-.622-.373 5.784 5.784 0 0 1-.622-.311l.622-1.058c.187.124.436.187.622.311s.436.249.622.373zM9.275 3.232 9.9 4.291c-.187.124-.436.187-.622.311a5.474 5.474 0 0 1-.622.373L8.03 3.917a2.707 2.707 0 0 1 .436-.249c.249-.124.436-.249.685-.373a.217.217 0 0 1 .124-.063zM1.743 14.873h1.245c0 .249-.062.5-.062.685a2.334 2.334 0 0 0 .062.685H1.743v-.934c-.062-.125 0-.309 0-.436zm.187 3.05h1.992c.747 0 .809-.622.809-1a2.792 2.792 0 0 1-.062-.685c0-.249-.062-.5-.062-.685a2.334 2.334 0 0 1 .062-.685c0-.249.062-.5.062-.685a.781.781 0 0 0-.809-1H1.93a13.427 13.427 0 0 1 4.731-8.208l.622 1.058.373.685a.776.776 0 0 0 1.244.187c.187-.124.373-.311.56-.436a5.474 5.474 0 0 1 .622-.373 2.908 2.908 0 0 1 .622-.311 7.3 7.3 0 0 1 .685-.311.779.779 0 0 0 .436-1.183l-.373-.685-.622-1.058a13.91 13.91 0 0 1 9.524 0l-.622 1.058-.436.685a.779.779 0 0 0 .436 1.183 3.336 3.336 0 0 1 .685.311c.187.124.436.187.622.311a5.474 5.474 0 0 0 .622.373 3.421 3.421 0 0 1 .56.436.776.776 0 0 0 1.245-.187l.373-.685.622-1.058a13.894 13.894 0 0 1 4.731 8.217H27.2c-.747 0-.809.622-.809 1a2.792 2.792 0 0 1 .062.685c0 .249.062.5.062.685a2.334 2.334 0 0 1-.062.685c0 .249-.062.5-.062.685a.781.781 0 0 0 .809 1h1.992a13.427 13.427 0 0 1-4.731 8.217l-.622-1.058-.373-.685a.776.776 0 0 0-1.245-.187c-.187.124-.373.311-.56.436a5.473 5.473 0 0 1-.622.373 2.907 2.907 0 0 1-.622.311 7.3 7.3 0 0 1-.685.311.779.779 0 0 0-.436 1.183l.373.685.622 1.058a13.91 13.91 0 0 1-9.524 0l.622-1.058.373-.685a.779.779 0 0 0-.436-1.183 3.336 3.336 0 0 1-.685-.311c-.187-.124-.436-.187-.622-.311a5.475 5.475 0 0 0-.622-.373 3.421 3.421 0 0 1-.56-.436.776.776 0 0 0-1.245.187l-.373.685L6.6 26.14a13.941 13.941 0 0 1-4.67-8.217z" transform="translate(0 .012)"></path><path id="Path_53" data-name="Path 53" class="cls-1" d="M24.477 15.455a.938.938 0 0 0-.642.7l-1.981 1.178a3.194 3.194 0 0 0-2.354-1.022 3.031 3.031 0 0 0-.964.161l-1.178-1.981a1.1 1.1 0 0 0 0-.589 1.05 1.05 0 1 0-1.981.7.938.938 0 0 0 .7.642l1.178 1.981a3.143 3.143 0 0 0-.964 2.3 3.031 3.031 0 0 0 .161.964l-1.981 1.178a1.07 1.07 0 0 0-.8.107 1.019 1.019 0 0 0 1.017 1.767.955.955 0 0 0 .482-.642l1.981-1.178a3.194 3.194 0 0 0 2.349 1.014 3.031 3.031 0 0 0 .964-.161l1.178 1.981a1.07 1.07 0 0 0 .107.8 1.019 1.019 0 1 0 1.767-1.017.955.955 0 0 0-.642-.482l-1.178-1.981a3.194 3.194 0 0 0 1.017-2.356 3.031 3.031 0 0 0-.161-.964l1.981-1.178a1.1 1.1 0 0 0 .589 0 1.078 1.078 0 0 0 .642-1.338.992.992 0 0 0-1.287-.584zm-3.534 5.085a1.868 1.868 0 0 1-1.231.749l-.428-.749-.8.428a1.868 1.868 0 0 1-.749-1.231l.749-.428-.428-.8a1.868 1.868 0 0 1 1.231-.749l.428.749.8-.428a1.868 1.868 0 0 1 .749 1.231l-.749.428z" transform="translate(-3.932 -3.944)"></path></svg>
