<svg id="live" xmlns="http://www.w3.org/2000/svg" viewBox="0 0 31 22.45" fit="" height="100%" width="100%" preserveAspectRatio="xMidYMid meet" focusable="false"><defs><style>.cls-1{fill:#6a7787}</style></defs><circle id="Ellipse_5" data-name="Ellipse 5" class="cls-1" cx="2.15" cy="2.15" r="2.15" transform="translate(13.35 9.072)"></circle><path id="Path_43" data-name="Path 43" class="cls-1" d="M39.478 20.258a12.044 12.044 0 0 0-3-8.137.985.985 0 0 0-.679-.32 1.064 1.064 0 0 0-.905 1.089.827.827 0 0 0 .283.641 9.943 9.943 0 0 1 2.433 6.664 9.943 9.943 0 0 1-2.433 6.664.937.937 0 0 0-.283.641.948.948 0 0 0 .905 1.089 1.116 1.116 0 0 0 .735-.32 11.948 11.948 0 0 0 2.944-8.011z" transform="translate(-12.439 -9.028)"></path><path id="Path_44" data-name="Path 44" class="cls-1" d="M33.35 21.394a6.247 6.247 0 0 0-1.81-4.413.055.055 0 0 0-.057-.057.921.921 0 1 0-1.245 1.358 4.273 4.273 0 0 1 1.245 3.055 4.323 4.323 0 0 1-1.3 3.055.055.055 0 0 0-.057.057.921.921 0 0 0 1.358 1.245 5.637 5.637 0 0 0 1.866-4.3z" transform="translate(-11.135 -10.183)"></path><path id="Path_45" data-name="Path 45" class="cls-1" d="M41.637 7.272A.882.882 0 0 0 40.9 6.9a1.014 1.014 0 0 0-.9 1.116.821.821 0 0 0 .226.558 14.192 14.192 0 0 1 3.621 9.489 13.805 13.805 0 0 1-3.621 9.489 1.957 1.957 0 0 0-.226.682.927.927 0 0 0 .905 1.054.965.965 0 0 0 .792-.434 16.209 16.209 0 0 0 3.96-10.729 16.293 16.293 0 0 0-4.02-10.853z" transform="translate(-14.653 -6.9)"></path><path id="Path_46" data-name="Path 46" class="cls-1" d="M5.488 27.608a13.8 13.8 0 0 1-3.621-9.486 13.8 13.8 0 0 1 3.621-9.486 1.049 1.049 0 0 0 .226-.744A1.075 1.075 0 0 0 4.7 6.9a1.026 1.026 0 0 0-.509.248l-.061.062-.057.062A16.167 16.167 0 0 0 0 18.122 16.123 16.123 0 0 0 4.017 28.91l.113.124.057.062a.959.959 0 0 0 .566.248.912.912 0 0 0 .962-.992 1.881 1.881 0 0 0-.226-.744z" transform="translate(0 -6.9)"></path><path id="Path_47" data-name="Path 47" class="cls-1" d="M17.112 16.925a.958.958 0 0 0-1.3.057A6.114 6.114 0 0 0 14 21.338a6.247 6.247 0 0 0 1.81 4.413.055.055 0 0 0 .057.057.921.921 0 1 0 1.245-1.358 4.237 4.237 0 0 1 0-6.11.055.055 0 0 0 .057-.057.924.924 0 0 0-.057-1.358z" transform="translate(-5.215 -10.178)"></path><path id="Path_48" data-name="Path 48" class="cls-1" d="M11.3 26.953a10.361 10.361 0 0 1-2.433-6.662 9.94 9.94 0 0 1 2.433-6.662 1.192 1.192 0 0 0-.057-1.473.818.818 0 0 0-1.243.063.058.058 0 0 0-.057.064s0 .064-.057.064A12.021 12.021 0 0 0 7 20.291 12.027 12.027 0 0 0 9.885 28.3s0 .064.057.064a.834.834 0 0 0 1.3.064 1.116 1.116 0 0 0 .057-1.473z" transform="translate(-3.04 -9.07)"></path></svg>
