<svg xmlns="http://www.w3.org/2000/svg" viewBox="0 0 31 26.961" fit="" height="100%" width="100%" preserveAspectRatio="xMidYMid meet" focusable="false"><path d="m30.616 9.274-4.091-4.71V4.5a2.7 2.7 0 0 0-2.293-1.3H6.753A2.7 2.7 0 0 0 4.46 4.5L.369 9.274a2.814 2.814 0 0 0 .186 3.1l12.83 16.735a2.634 2.634 0 0 0 4.215 0l12.83-16.674a2.926 2.926 0 0 0 .186-3.161zm-5.7-3.781 3.964 4.339h-6.942l-4.4-4.773h6.632a.809.809 0 0 1 .744.434zm-9.424 20.826-4.772-14.69h9.607zM11.526 9.832l3.967-4.339 3.967 4.339zM6.071 5.493a.939.939 0 0 1 .682-.434h6.632l-4.4 4.773H2.166zm-3.843 6.136h6.508l4.835 14.751zm15.186 14.752 4.835-14.751h6.508zm0 0" transform="translate(.008 -3.2)" style="fill:#6a7787"></path></svg>
