<svg xmlns="http://www.w3.org/2000/svg" viewBox="0 0 30 30.105" fit="" height="100%" width="100%" preserveAspectRatio="xMidYMid meet" focusable="false"><path d="M29.684 11.778a11.858 11.858 0 0 0-.421-1.562 14.552 14.552 0 0 0-1.742-3.486 14.622 14.622 0 0 0-1.2-1.5 14.831 14.831 0 0 0-4.869-3.73 9.409 9.409 0 0 0-1.8-.721A13.623 13.623 0 0 0 15.8.06a3.174 3.174 0 0 0-.778-.06 3.967 3.967 0 0 0-.841.06 13.623 13.623 0 0 0-3.846.721 11.279 11.279 0 0 0-1.8.721 14.465 14.465 0 0 0-4.87 3.666 26.43 26.43 0 0 0-1.2 1.5 13.57 13.57 0 0 0-1.684 3.367A15.517 15.517 0 0 0 .3 11.6a21.977 21.977 0 0 0-.3 3.422 2.926 2.926 0 0 0 .06.721 19 19 0 0 0 .18 1.923 14.267 14.267 0 0 0 1.86 4.988 12.685 12.685 0 0 0 1.082 1.622 13.7 13.7 0 0 0 2.827 2.764c.421.3.9.661 1.322.9a15.971 15.971 0 0 0 3.605 1.56c.6.18 1.262.3 1.863.421a13.868 13.868 0 0 0 2.223.18 14.818 14.818 0 0 0 2.343-.18 16.928 16.928 0 0 0 1.863-.421 15.038 15.038 0 0 0 3.605-1.622c.481-.3.9-.6 1.322-.9a17.18 17.18 0 0 0 2.764-2.764c.361-.541.721-1.022 1.082-1.622a15.205 15.205 0 0 0 1.743-4.867 9.946 9.946 0 0 0 .18-1.923c0-.24.06-.481.06-.721a11.679 11.679 0 0 0-.3-3.303zM19.95 2.584a13.31 13.31 0 0 1 5.708 4.386L23.8 12.018l-3 .961-5-3.605V5.588zm-.24 11.6-1.8 5.528h-5.772l-1.8-5.528 4.687-3.425 4.687 3.425zm-5.528-12.5c.3 0 .541-.06.841-.06a3.967 3.967 0 0 1 .841.06 13.379 13.379 0 0 1 2.163.3l-2.163 1.561-.841.6-.841-.6-2.164-1.562a13.379 13.379 0 0 1 2.163-.3zm-4.086.9 4.146 3v3.79l-4.928 3.605-3.065-1.021L4.387 7.03A12.994 12.994 0 0 1 10.1 2.584zM1.923 12.2a11.869 11.869 0 0 1 .477-1.564c.24-.661.541-1.322.841-1.983l.961 2.584.361.9-.841.661-2.039 1.623a13.256 13.256 0 0 1 .24-2.221zm-.24 4.266L5.528 13.4l3.185 1.082 1.923 5.889-1.442 2.042-5.228.18a14.567 14.567 0 0 1-2.283-6.128zm6.55 10.1c-.481-.3-.9-.6-1.382-.9a20 20 0 0 1-1.683-1.5l2.764-.12.9-.06L9.194 25l.9 2.4a9.983 9.983 0 0 1-1.862-.84zm9.795 1.5a12.463 12.463 0 0 1-3 .361 15.667 15.667 0 0 1-2.884-.3l-1.683-4.687 1.5-2.163h6.129l1.562 2.1zm5.228-2.524a8.6 8.6 0 0 1-1.322.9 10.108 10.108 0 0 1-1.983.961l.841-2.464.361-1.022h.9l2.764.06a6.431 6.431 0 0 1-1.562 1.561zm2.884-3.065-5.288-.12-1.5-1.983 1.863-5.829 3.245-1.022 3.786 3a11.658 11.658 0 0 1-2.107 5.95zm.24-9.614-.9-.721.3-.781 1.022-2.7a15.134 15.134 0 0 1 .9 2.043 15.049 15.049 0 0 1 .421 1.562 12.545 12.545 0 0 1 .24 2.163z" style="fill:#6a7787"></path></svg>
